HIERARCHY
ROOT joint_Root
{
	OFFSET 0.0 0.0 0.0
	CHANNELS 6 Xposition Yposition Zposition Zrotation Xrotation Yrotation 
	JOINT Hips
	{
		OFFSET -0.726466 93.3139 -2.00062
		CHANNELS 6 Xposition Yposition Zposition Zrotation Xrotation Yrotation 
		JOINT Spine
		{
			OFFSET 15.7357 0.0 0.0
			CHANNELS 6 Xposition Yposition Zposition Zrotation Xrotation Yrotation 
			JOINT Chest
			{
				OFFSET 8.98455 -0.406207 0.0
				CHANNELS 6 Xposition Yposition Zposition Zrotation Xrotation Yrotation 
				JOINT Neck
				{
					OFFSET 16.3773 0.0 0.0
					CHANNELS 6 Xposition Yposition Zposition Zrotation Xrotation Yrotation 
					JOINT Head
					{
						OFFSET 6.45672 0.0 0.0
						CHANNELS 6 Xposition Yposition Zposition Zrotation Xrotation Yrotation 
						End Site
						{
							OFFSET 0.0 0.0 0.0
						}
					}
				}
				JOINT Shoulder_L
				{
					OFFSET 12.9942 -0.242716 4.98039
					CHANNELS 6 Xposition Yposition Zposition Zrotation Xrotation Yrotation 
					JOINT UpperArm_L
					{
						OFFSET 5.34809 0.0 0.0
						CHANNELS 6 Xposition Yposition Zposition Zrotation Xrotation Yrotation 
						JOINT LowerArm_L
						{
							OFFSET 24.3286 1.87007e-05 0.0
							CHANNELS 6 Xposition Yposition Zposition Zrotation Xrotation Yrotation 
							JOINT Hand_L
							{
								OFFSET 22.2916 0.0 0.0
								CHANNELS 6 Xposition Yposition Zposition Zrotation Xrotation Yrotation 
								End Site
								{
									OFFSET 0.0 0.0 0.0
								}
							}
						}
					}
				}
				JOINT Shoulder_R
				{
					OFFSET 12.9945 -0.242716 -4.98039
					CHANNELS 6 Xposition Yposition Zposition Zrotation Xrotation Yrotation 
					JOINT UpperArm_R
					{
						OFFSET -5.34813 0.0 0.0
						CHANNELS 6 Xposition Yposition Zposition Zrotation Xrotation Yrotation 
						JOINT LowerArm_R
						{
							OFFSET -24.3289 0.000322201 0.0
							CHANNELS 6 Xposition Yposition Zposition Zrotation Xrotation Yrotation 
							JOINT Hand_R
							{
								OFFSET -22.2915 -0.000108084 0.0
								CHANNELS 6 Xposition Yposition Zposition Zrotation Xrotation Yrotation 
								End Site
								{
									OFFSET 0.0 0.0 0.0
								}
							}
						}
					}
				}
			}
		}
		JOINT UpperLeg_L
		{
			OFFSET -2.19248 -6.46944 0.0
			CHANNELS 6 Xposition Yposition Zposition Zrotation Xrotation Yrotation 
			JOINT LowerLeg_L
			{
				OFFSET 39.0811 0.0 -1.23785e-05
				CHANNELS 6 Xposition Yposition Zposition Zrotation Xrotation Yrotation 
				JOINT Foot_L
				{
					OFFSET 40.9854 0.0 -1.26872e-05
					CHANNELS 6 Xposition Yposition Zposition Zrotation Xrotation Yrotation 
					JOINT Toes_L
					{
						OFFSET 11.7543 0.0 0.0
						CHANNELS 6 Xposition Yposition Zposition Zrotation Xrotation Yrotation 
						End Site
						{
							OFFSET 0.0 0.0 0.0
						}
					}
				}
			}
		}
		JOINT UpperLeg_R
		{
			OFFSET -2.19251 6.46944 0.0
			CHANNELS 6 Xposition Yposition Zposition Zrotation Xrotation Yrotation 
			JOINT LowerLeg_R
			{
				OFFSET -39.0811 -0.00228153 -0.0401928
				CHANNELS 6 Xposition Yposition Zposition Zrotation Xrotation Yrotation 
				JOINT Foot_R
				{
					OFFSET -40.9854 0.0 0.0
					CHANNELS 6 Xposition Yposition Zposition Zrotation Xrotation Yrotation 
					JOINT Toes_R
					{
						OFFSET -11.7543 0.0 0.0
						CHANNELS 6 Xposition Yposition Zposition Zrotation Xrotation Yrotation 
						End Site
						{
							OFFSET 0.0 0.0 0.0
						}
					}
				}
			}
		}
	}
}
MOTION
Frames:	8
Frame Time:	0.0333333
0.000000 0.000000 0.000000 0.000000 0.000000 -0.000000 132.747000 90.767000 120.058000 94.428500 -30.357900 8.751330 15.735700 0.000005 -0.000001 94.479200 83.230500 -94.005200 8.984550 -0.406207 -0.000000 5.728240 1.046300 0.894564 16.377300 -0.000001 -0.000001 4.157810 -16.192600 4.441010 6.456720 -0.000001 -0.000000 6.389570 -26.571200 4.954090 12.994200 -0.242716 4.980390 -89.373800 -1.760890 -70.418300 5.348090 -0.000007 -0.000001 -81.509900 30.081000 3.837700 24.328600 0.000019 0.000005 2.457180 7.819450 -17.507300 22.291600 -0.000001 0.000005 0.020399 5.413090 -3.367280 12.994500 -0.242716 -4.980390 88.475500 4.768820 -72.249300 -5.348130 -0.000001 -0.000004 -62.862800 39.676500 -30.563300 -24.328900 0.000322 -0.000009 2.657120 4.830590 -28.869600 -22.291500 -0.000108 -0.000004 10.096800 5.427350 -3.848370 -2.192480 -6.469440 -0.000000 -175.242000 0.231884 -19.230400 39.081100 -0.000007 -0.000012 -0.066158 0.042434 57.326200 40.985400 -0.000006 -0.000013 3.947890 -8.252540 -55.150900 11.754300 -0.000000 0.000003 -0.007622 -0.084931 -20.034900 -2.192510 6.469440 -0.000001 -173.189000 7.513550 -175.715000 -39.081100 -0.002282 -0.040193 0.060387 -0.139563 22.240600 -40.985400 0.000008 0.000006 19.018600 -0.152216 -68.018500 -11.754300 -0.000006 -0.000006 -0.282228 -0.381431 -20.070000
0.000000 0.000000 0.000000 0.000000 0.000000 -0.000000 131.681000 90.719600 122.530000 95.002300 -34.344400 8.389550 15.735700 0.000005 -0.000001 98.337600 83.228400 -98.053100 8.984550 -0.406207 -0.000000 5.631820 1.953800 0.472325 16.377300 -0.000001 -0.000001 3.910600 -15.604200 4.016170 6.456720 -0.000001 -0.000000 6.040570 -26.360200 4.670990 12.994200 -0.242716 4.980390 -89.367200 -1.712100 -69.711200 5.348090 -0.000007 -0.000001 -83.078200 27.152900 6.371360 24.328600 0.000019 0.000005 2.639670 10.111800 -14.714700 22.291600 -0.000001 0.000005 0.013351 5.388770 -2.576200 12.994500 -0.242716 -4.980390 88.636200 4.395750 -72.744500 -5.348130 -0.000001 -0.000004 -58.883700 42.253400 -36.673600 -24.328900 0.000322 -0.000009 2.723490 4.127230 -33.474800 -22.291500 -0.000108 -0.000004 10.094500 5.437740 -4.206660 -2.192480 -6.469440 -0.000000 -174.635000 2.537870 -19.741900 39.081100 -0.000007 -0.000012 -0.022129 0.020901 46.638100 40.985400 -0.000006 -0.000013 4.317070 -10.098700 -56.674700 11.754300 -0.000000 0.000003 -0.006832 -0.078227 -19.761200 -2.192510 6.469440 -0.000001 -174.095000 5.605630 -174.107000 -39.081100 -0.002282 -0.040193 0.044816 -0.104160 21.722600 -40.985400 0.000008 0.000006 19.125500 1.618200 -68.984900 -11.754300 -0.000006 -0.000006 -0.667901 -0.801138 -20.795500
0.000000 0.000000 0.000000 0.000000 0.000000 -0.000000 130.530000 90.463900 124.984000 94.812500 -37.623100 7.468830 15.735700 0.000005 -0.000001 100.752000 83.307700 -100.454000 8.984550 -0.406207 -0.000000 5.381220 2.485180 0.479105 16.377300 -0.000001 -0.000001 3.680140 -15.220400 3.613430 6.456720 -0.000001 -0.000000 5.755970 -26.158400 4.347130 12.994200 -0.242716 4.980390 -89.318500 -1.802660 -69.287000 5.348090 -0.000007 -0.000001 -84.057000 24.240900 8.006920 24.328600 0.000019 0.000005 2.678720 12.479000 -12.218100 22.291600 -0.000001 0.000005 -0.008321 5.355740 -1.550230 12.994500 -0.242716 -4.980390 88.783700 4.010400 -73.112500 -5.348130 -0.000001 -0.000004 -55.077300 43.974600 -42.202500 -24.328900 0.000322 -0.000009 2.907710 3.767620 -37.713900 -22.291500 -0.000108 -0.000004 10.389300 5.439290 -4.261150 -2.192480 -6.469440 -0.000000 -173.107000 3.947540 -19.643600 39.081100 -0.000007 -0.000012 0.005956 -0.008792 34.109500 40.985400 -0.000006 -0.000013 4.016450 -10.612700 -56.790900 11.754300 -0.000000 0.000003 -0.006933 -0.079093 -19.796600 -2.192510 6.469440 -0.000001 -174.519000 4.405620 -173.153000 -39.081100 -0.002282 -0.040193 0.037922 -0.085665 21.996100 -40.985400 0.000008 0.000006 19.361100 3.376310 -69.998500 -11.754300 -0.000006 -0.000006 -1.510070 -1.699660 -21.626900
0.000000 0.000000 0.000000 0.000000 0.000000 -0.000000 129.182000 90.058900 127.528000 93.652100 -40.321200 5.927350 15.735700 0.000005 -0.000001 102.743000 83.458900 -102.215000 8.984550 -0.406207 -0.000000 4.985980 2.867020 0.929139 16.377300 -0.000001 -0.000001 3.485950 -15.036200 3.324610 6.456720 -0.000001 -0.000000 5.694670 -26.043700 4.059670 12.994200 -0.242716 4.980390 -89.193500 -2.117430 -69.141900 5.348090 -0.000007 -0.000001 -84.538400 21.982500 8.881410 24.328600 0.000019 0.000005 2.483120 13.939800 -10.205000 22.291600 -0.000001 0.000005 -0.339220 5.319860 -0.490898 12.994500 -0.242716 -4.980390 88.922500 3.562720 -73.160600 -5.348130 -0.000001 -0.000004 -52.300300 45.106700 -46.323200 -24.328900 0.000322 -0.000009 3.145500 3.581350 -41.350300 -22.291500 -0.000108 -0.000004 10.723200 5.447270 -4.541850 -2.192480 -6.469440 -0.000000 -171.291000 3.072840 -18.820800 39.081100 -0.000007 -0.000012 0.008697 -0.022895 20.799600 40.985400 -0.000006 -0.000013 2.650000 -8.194800 -57.960400 11.754300 -0.000000 0.000003 -0.006527 -0.075555 -19.652200 -2.192510 6.469440 -0.000001 -174.293000 3.499050 -172.411000 -39.081100 -0.002282 -0.040193 0.036868 -0.080296 22.677600 -40.985400 0.000008 0.000006 19.399200 5.101040 -70.464300 -11.754300 -0.000006 -0.000006 -2.477720 -2.667900 -23.214300
0.000000 0.000000 0.000000 0.000000 0.000000 -0.000000 127.681000 89.551900 130.287000 92.546300 -42.494300 4.480910 15.735700 0.000005 -0.000001 103.621000 83.648000 -102.947000 8.984550 -0.406207 -0.000000 4.568420 2.967750 1.229510 16.377300 -0.000001 -0.000001 3.490500 -14.904500 3.232350 6.456720 -0.000001 -0.000000 5.744920 -25.815900 3.911420 12.994200 -0.242716 4.980390 -89.099100 -2.363670 -69.129100 5.348090 -0.000007 -0.000001 -84.272800 20.504400 9.076650 24.328600 0.000019 0.000005 2.286900 14.476800 -9.076020 22.291600 -0.000001 0.000005 -0.893172 5.284310 0.508506 12.994500 -0.242716 -4.980390 89.002700 3.325000 -73.293900 -5.348130 -0.000001 -0.000004 -50.819800 45.811100 -48.431900 -24.328900 0.000322 -0.000009 3.419860 3.488260 -44.494500 -22.291500 -0.000108 -0.000004 10.917800 5.455640 -4.842210 -2.192480 -6.469440 -0.000000 -171.547000 -3.213120 -18.326300 39.081100 -0.000007 -0.000012 -0.015665 0.092920 9.569130 40.985400 -0.000006 -0.000013 -3.444260 -1.958920 -58.645700 11.754300 -0.000000 0.000003 -0.007175 -0.081171 -19.881400 -2.192510 6.469440 -0.000001 -174.528000 3.418570 -171.721000 -39.081100 -0.002282 -0.040193 0.041944 -0.086566 24.048800 -40.985400 0.000008 0.000006 19.765000 6.996980 -71.472100 -11.754300 -0.000006 -0.000006 -2.173570 -2.279960 -24.235900
0.000000 0.000000 0.000000 0.000000 0.000000 -0.000000 125.963000 88.971300 133.396000 91.673100 -44.238900 3.356580 15.735700 0.000005 -0.000001 103.504000 83.837200 -102.734000 8.984550 -0.406207 -0.000000 4.204430 2.849700 1.433210 16.377300 -0.000001 -0.000001 3.473100 -14.817600 3.076300 6.456720 -0.000001 -0.000000 5.936650 -25.602800 3.820840 12.994200 -0.242716 4.980390 -89.118500 -2.310550 -69.111100 5.348090 -0.000007 -0.000001 -83.365100 20.342300 8.665120 24.328600 0.000019 0.000005 2.175320 14.391700 -8.688880 22.291600 -0.000001 0.000005 -0.674719 5.274500 0.776234 12.994500 -0.242716 -4.980390 89.059600 3.128960 -73.262800 -5.348130 -0.000001 -0.000004 -50.112600 46.631400 -49.156500 -24.328900 0.000322 -0.000009 3.335900 3.148250 -46.715200 -22.291500 -0.000108 -0.000004 11.182400 5.462930 -5.108250 -2.192480 -6.469440 -0.000000 -172.544000 -8.332950 -17.510700 39.081100 -0.000007 -0.000012 -0.003879 0.124566 1.783270 40.985400 -0.000006 -0.000013 -13.712600 4.682200 -59.090300 11.754300 -0.000000 0.000003 -0.007223 -0.081580 -19.898100 -2.192510 6.469440 -0.000001 -175.101000 3.372990 -170.843000 -39.081100 -0.002282 -0.040193 0.052474 -0.101352 25.877200 -40.985400 0.000008 0.000006 20.138200 8.618550 -72.358400 -11.754300 -0.000006 -0.000006 -0.270426 -0.425950 -25.031200
0.000000 0.000000 0.000000 0.000000 0.000000 -0.000000 124.023000 88.400500 136.916000 91.362500 -45.434600 3.192810 15.735700 0.000005 -0.000001 102.550000 83.839600 -101.783000 8.984550 -0.406207 -0.000000 4.246860 2.649430 1.433440 16.377300 -0.000001 -0.000001 3.438730 -14.998100 2.864700 6.456720 -0.000001 -0.000000 5.956660 -25.547200 3.739140 12.994200 -0.242716 4.980390 -89.226000 -2.041970 -69.235900 5.348090 -0.000007 -0.000001 -81.910900 20.881300 7.394270 24.328600 0.000019 0.000005 2.218800 14.117300 -9.025870 22.291600 -0.000001 0.000005 0.341648 5.283430 0.533317 12.994500 -0.242716 -4.980390 89.093400 2.956700 -72.944200 -5.348130 -0.000001 -0.000004 -50.437600 47.341800 -48.210200 -24.328900 0.000322 -0.000009 3.278070 2.965530 -47.920000 -22.291500 -0.000108 -0.000004 11.364000 5.470230 -5.378760 -2.192480 -6.469440 -0.000000 -174.342000 -10.094300 -23.331900 39.081100 -0.000007 -0.000012 -0.052196 0.232906 12.631600 40.985400 -0.000006 -0.000013 -8.323660 7.539540 -63.498200 11.754300 -0.000000 0.000003 -0.008041 -0.088379 -20.175700 -2.192510 6.469440 -0.000001 -176.024000 3.104510 -169.442000 -39.081100 -0.002282 -0.040193 0.064574 -0.114744 28.100100 -40.985400 0.000008 0.000006 20.362600 9.476950 -72.116400 -11.754300 -0.000006 -0.000006 -0.046698 -0.285781 -28.333400
0.000000 0.000000 0.000000 0.000000 0.000000 -0.000000 121.934000 88.064000 140.724000 93.619500 -46.521300 4.986700 15.735700 0.000005 -0.000001 101.015000 83.746000 -100.906000 8.984550 -0.406207 -0.000000 4.512380 2.382660 0.124369 16.377300 -0.000001 -0.000001 3.659310 -14.989500 2.977490 6.456720 -0.000001 -0.000000 5.837910 -25.491200 3.740560 12.994200 -0.242716 4.980390 -89.492600 -1.349360 -69.388500 5.348090 -0.000007 -0.000001 -79.591000 21.656700 5.003220 24.328600 0.000019 0.000005 2.311020 13.624100 -9.721960 22.291600 -0.000001 0.000005 2.383070 5.307120 -0.125123 12.994500 -0.242716 -4.980390 88.843000 3.796400 -73.036200 -5.348130 -0.000001 -0.000004 -51.088500 47.545600 -45.485800 -24.328900 0.000322 -0.000009 2.983750 2.685900 -48.054600 -22.291500 -0.000108 -0.000004 11.281200 5.469740 -5.360650 -2.192480 -6.469440 -0.000000 -175.971000 -7.487630 -26.898400 39.081100 -0.000007 -0.000012 -0.077278 0.195790 21.539100 40.985400 -0.000006 -0.000013 -6.959750 8.303480 -55.769100 11.754300 -0.000000 0.000003 -0.010208 -0.105197 -20.863100 -2.192510 6.469440 -0.000001 -178.969000 3.020700 -168.320000 -39.081100 -0.002282 -0.040193 0.064716 -0.102160 31.013500 -40.985400 0.000008 0.000006 20.765000 10.543800 -70.682200 -11.754300 -0.000006 -0.000006 -0.083335 -0.401169 -33.242900
